# Blender v2.72 (sub 0) OBJ File: ''
# www.blender.org
mtllib arrow.mtl
v 1.197958 -0.749367 1.122607
v 1.197958 -0.749367 -0.877393
v 3.197958 -0.749367 -0.877393
v 3.197958 -0.749367 1.122607
v 1.197958 1.250633 1.122607
v 1.197958 1.250633 -0.877393
v 3.197958 1.250633 -0.877393
v 3.197958 1.250633 1.122607
v 1.240733 -1.315908 -1.443934
v 1.240733 -1.315908 1.689148
v -0.616273 -1.315908 0.122607
v -0.616273 -1.315908 0.122607
v 1.240734 1.817174 -1.443933
v 1.240733 1.817174 1.689149
v -0.616274 1.817174 0.122607
v -0.616274 1.817174 0.122607
v -0.616273 -1.315908 0.122607
v -0.616273 0.250633 0.122607
v -0.616273 0.250633 0.122607
v -0.616274 1.817174 0.122607
v -0.616273 0.250633 0.122607
v -0.616273 0.250633 0.122607
v -0.616273 0.250633 0.122607
v -0.616273 0.250633 0.122607
vt 0.000000 1.000000
vt 1.000000 1.000000
vt 1.000000 0.000000
vt 0.341003 0.233660
vt 0.530645 0.000073
vt 0.324058 0.541975
vt 0.230603 0.499115
vt 0.091876 0.694539
vt 0.000073 0.999927
vt 0.354915 0.601295
vt 0.083334 0.601295
vt 0.087605 0.647917
vt 0.146402 0.259458
vt 0.420878 0.323858
vt 0.000000 0.000000
vt 0.460816 0.368956
vn 1.000000 0.000000 0.000000
vn 0.000000 0.000000 -1.000000
vn 0.000000 0.000000 1.000000
vn 0.000000 -1.000000 0.000000
vn 0.000000 1.000000 0.000000
vn -0.644800 -0.000000 0.764400
vn -0.644800 0.000000 -0.764400
usemtl None
s off
f 1/1/1 2/2/1 6/3/1
f 7/3/2 3/2/2 2/1/2
f 8/3/1 4/2/1 3/1/1
f 5/3/3 1/2/3 4/1/3
f 2/3/4 3/2/4 4/1/4
f 7/3/5 6/2/5 5/1/5
f 12/4/4 9/5/4 10/6/4
f 13/7/5 15/8/5 14/9/5
f 9/5/1 13/7/1 14/9/1
f 14/9/6 15/8/6 22/10/6
f 19/10/3 16/11/3 20/12/3
f 9/5/7 12/4/7 23/13/7
f 12/4/3 24/10/3 21/10/3
f 17/14/3 21/10/3 18/10/3
f 21/10/3 20/12/3 15/8/3
f 5/15/1 1/1/1 6/3/1
f 6/15/2 7/3/2 2/1/2
f 7/15/1 8/3/1 3/1/1
f 8/15/3 5/3/3 4/1/3
f 1/15/4 2/3/4 4/1/4
f 8/15/5 7/3/5 5/1/5
f 11/16/3 17/14/3 12/4/3
f 16/11/3 20/12/3 15/8/3
f 10/6/4 11/16/4 12/4/4
f 13/7/3 16/11/3 15/8/3
f 10/6/1 9/5/1 14/9/1
f 22/10/6 11/16/6 10/6/6
f 21/10/3 19/10/3 20/12/3
f 10/6/6 14/9/6 22/10/6
f 23/13/7 16/11/7 13/7/7
f 17/14/1 12/4/1 21/10/1
f 13/7/7 9/5/7 23/13/7
f 11/16/3 17/14/3 18/10/3
f 18/10/3 21/10/3 15/8/3
