# Blender v2.72 (sub 0) OBJ File: 'empty_level.blend'
# www.blender.org
mtllib empty_level.mtl
o Cube
v 7.315995 0.025350 8.036132
v 7.315995 0.025350 7.305741
v 8.046387 0.025350 7.305741
v 8.046387 0.025350 8.036132
v 7.315995 0.755741 8.036132
v 7.315995 0.755741 7.305741
v 8.046387 0.755741 7.305741
v 8.046387 0.755741 8.036132
v 7.315995 0.025350 8.036132
v 7.315995 0.025350 7.305741
v 7.315995 0.755741 8.036132
v 7.315995 0.755741 7.305741
v -8.046345 0.025350 8.036132
v -8.046345 0.025350 7.305741
v -8.046345 0.755741 8.036132
v -8.046345 0.755741 7.305741
v 7.315995 0.025350 7.305741
v 8.046387 0.025350 7.305741
v 7.315995 0.755741 7.305741
v 8.046387 0.755741 7.305741
v 7.315995 0.025350 -8.015500
v 8.046387 0.025350 -8.015500
v 7.315995 0.755741 -8.015500
v 8.046387 0.755741 -8.015500
v 8.046387 0.025350 -7.229352
v 7.315995 0.025350 -7.229352
v 8.046387 0.755741 -7.229352
v 7.315995 0.755741 -7.229352
v -8.026189 0.025350 -8.015500
v -8.026189 0.755741 -8.015500
v -8.026189 0.025350 -7.229352
v -8.026189 0.755741 -7.229352
v -7.249538 0.025350 -7.229352
v -7.249538 0.755741 -7.229352
v -7.249538 0.755741 -8.015500
v -7.249538 0.025350 -8.015500
v -8.026189 0.025350 7.390345
v -8.026189 0.755741 7.390345
v -7.249538 0.025350 7.390345
v -7.249538 0.755741 7.390345
v -8.050148 -0.060276 -8.035604
v -8.050148 -0.060276 8.035605
v 8.050149 -0.060276 8.035604
v 8.050145 -0.060276 -8.035608
v -8.050152 0.060276 -8.035601
v -8.050142 0.060276 8.035610
v 8.050151 0.060276 8.035603
v 8.050147 0.060276 -8.035605
vt 0.000000 0.000000
vt 0.082470 0.977802
vt 0.082470 1.000000
vt 0.061853 1.000000
vt 0.927938 0.466894
vt 0.927938 0.489092
vt 0.907321 0.489092
vt 0.041235 0.977802
vt 0.041235 1.000000
vt 0.020618 1.000000
vt 1.000000 1.000000
vt 0.954736 1.000000
vt 0.954736 0.954614
vt 0.948556 0.466894
vt 0.927938 0.000000
vt 0.061853 0.977802
vt 0.931609 0.489322
vt 0.931609 0.956216
vt 0.910992 0.956216
vt 1.000000 0.000000
vt 1.000000 0.954614
vt 0.907321 0.466894
vt 0.907321 0.000000
vt 0.434878 0.977802
vt 0.434878 0.955604
vt 0.457070 0.955604
vt 0.890374 0.955604
vt 0.890374 0.977802
vt 0.869756 0.977802
vt 0.948556 0.000000
vt 0.969173 0.000000
vt 0.969173 0.023893
vt 0.048720 0.998748
vt 0.000000 0.998748
vt 0.000000 0.953361
vt 0.952227 0.933646
vt 0.952227 0.489322
vt 0.972844 0.489322
vt 0.457070 0.977802
vt 0.867368 0.955604
vt 0.948556 0.023893
vt 0.969173 0.465645
vt 0.949493 0.998748
vt 0.048720 0.953361
vt 0.972845 0.931074
vt 0.993462 0.489322
vt 0.910992 0.957538
vt 0.890374 0.957538
vt 0.890374 0.933646
vt 0.000000 0.048261
vt 0.048719 0.000000
vt 0.434878 0.489322
vt 0.457070 0.489322
vt 0.457070 0.512926
vt 0.869756 0.489322
vt 0.890374 0.489322
vt 0.890374 0.512926
vt 0.969174 0.442677
vt 0.989791 0.000000
vt 0.048719 0.048261
vt 0.434878 0.512926
vt 0.869756 0.512926
vt 0.910992 0.981142
vt 0.954736 0.000000
vt 0.954736 0.048261
vt 0.910992 0.489322
vt 0.910992 0.933646
vt 0.453660 0.000000
vt 0.453660 0.489322
vt 0.000000 1.000000
vt 0.996597 0.488438
vt 0.996597 0.000000
vt 0.996597 0.489322
vt 0.993194 0.489322
vt 0.996865 0.977760
vt 0.993462 0.977760
vt 0.993194 0.000000
vt 0.020618 0.977802
vt 0.869756 0.955604
vt 0.972844 0.933646
vt 0.867368 0.977802
vt 0.948556 0.465645
vt 0.949493 0.953361
vt 0.993462 0.931074
vt 0.989791 0.442677
vt 0.890374 0.981142
vt 0.000000 0.489322
vt 1.000000 0.488438
vt 0.996865 0.489322
vt 0.989791 0.489322
vn 0.000000 0.000000 1.000000
vn -1.000000 0.000000 0.000000
vn 0.000000 0.000000 -1.000000
vn 0.000000 1.000000 0.000000
vn 1.000000 0.000000 0.000000
vn 0.000000 -1.000000 0.000000
usemtl Material.003
s off
f 10/1/1 9/1/1 1/1/1
f 18/1/1 17/1/1 2/1/1
f 3/2/2 4/3/2 8/4/2
f 4/5/3 1/6/3 5/7/3
f 4/8/4 3/9/4 2/10/4
f 7/11/4 6/12/4 5/13/4
f 14/14/4 13/5/4 9/15/4
f 12/1/1 10/1/1 2/1/1
f 11/1/1 12/1/1 6/1/1
f 9/1/1 11/1/1 5/1/1
f 13/16/5 14/4/5 16/9/5
f 10/17/3 14/18/3 16/19/3
f 12/20/4 16/21/4 15/13/4
f 13/5/3 15/22/3 11/23/3
f 22/24/4 21/25/4 26/26/4
f 20/1/1 18/1/1 3/1/1
f 19/1/1 20/1/1 7/1/1
f 17/1/1 19/1/1 6/1/1
f 21/27/1 22/28/1 24/29/1
f 24/30/2 22/31/2 25/32/2
f 27/33/4 24/34/4 23/35/4
f 34/36/5 40/37/5 39/38/5
f 25/39/4 26/26/4 17/40/4
f 27/41/2 25/32/2 18/42/2
f 20/43/4 27/33/4 28/44/4
f 19/45/2 28/38/2 26/46/2
f 29/47/5 30/48/5 32/49/5
f 35/50/4 30/1/4 32/51/4
f 29/52/4 31/53/4 33/54/4
f 30/55/1 29/56/1 36/57/1
f 28/58/1 34/31/1 33/59/1
f 23/35/4 35/50/4 34/60/4
f 36/61/4 33/54/4 26/26/4
f 35/62/1 36/57/1 21/27/1
f 37/48/3 38/47/3 40/63/3
f 37/55/4 39/62/4 33/54/4
f 32/51/4 38/64/4 40/65/4
f 38/56/5 37/66/5 31/67/5
f 44/1/6 43/68/6 42/69/6
f 46/20/4 47/11/4 48/70/4
f 41/71/2 42/72/2 46/20/2
f 42/72/1 43/73/1 47/74/1
f 44/75/5 48/76/5 47/46/5
f 48/59/3 44/77/3 41/74/3
f 2/1/1 10/1/1 1/1/1
f 3/1/1 18/1/1 2/1/1
f 7/16/2 3/2/2 8/4/2
f 8/22/3 4/5/3 5/7/3
f 1/78/4 4/8/4 2/10/4
f 8/21/4 7/11/4 5/13/4
f 10/30/4 14/14/4 9/15/4
f 6/1/1 12/1/1 2/1/1
f 5/1/1 11/1/1 6/1/1
f 1/1/1 9/1/1 5/1/1
f 15/8/5 13/16/5 16/9/5
f 12/66/3 10/17/3 16/19/3
f 11/64/4 12/20/4 15/13/4
f 9/15/3 13/5/3 11/23/3
f 25/39/4 22/24/4 26/26/4
f 7/1/1 20/1/1 3/1/1
f 6/1/1 19/1/1 7/1/1
f 2/1/1 17/1/1 6/1/1
f 23/79/1 21/27/1 24/29/1
f 27/41/2 24/30/2 25/32/2
f 28/44/4 27/33/4 23/35/4
f 33/80/5 34/36/5 39/38/5
f 18/81/4 25/39/4 17/40/4
f 20/82/2 27/41/2 18/42/2
f 19/83/4 20/43/4 28/44/4
f 17/84/2 19/45/2 26/46/2
f 31/67/5 29/47/5 32/49/5
f 34/60/4 35/50/4 32/51/4
f 36/61/4 29/52/4 33/54/4
f 35/62/1 30/55/1 36/57/1
f 26/85/1 28/58/1 33/59/1
f 28/44/4 23/35/4 34/60/4
f 21/25/4 36/61/4 26/26/4
f 23/79/1 35/62/1 21/27/1
f 39/86/3 37/48/3 40/63/3
f 31/53/4 37/55/4 33/54/4
f 34/60/4 32/51/4 40/65/4
f 32/49/5 38/56/5 31/67/5
f 41/87/6 44/1/6 42/69/6
f 45/1/4 46/20/4 48/70/4
f 45/88/2 41/71/2 46/20/2
f 46/77/1 42/72/1 47/74/1
f 43/89/5 44/75/5 47/46/5
f 45/90/3 48/59/3 41/74/3
