# Blender v2.72 (sub 0) OBJ File: 'level1.blend'
# www.blender.org
mtllib level1.mtl
g Cube
v 7.315995 0.025350 8.036132
v 7.315995 0.025350 7.305741
v 8.046387 0.025350 7.305741
v 8.046387 0.025350 8.036132
v 7.315995 0.755741 8.036132
v 7.315995 0.755741 7.305741
v 8.046387 0.755741 7.305741
v 8.046387 0.755741 8.036132
v 7.315995 0.025350 8.036132
v 7.315995 0.025350 7.305741
v 7.315995 0.755741 8.036132
v 7.315995 0.755741 7.305741
v -8.046345 0.025350 8.036132
v -8.046345 0.025350 7.305741
v -8.046345 0.755741 8.036132
v -8.046345 0.755741 7.305741
v 7.315995 0.025350 7.305741
v 8.046387 0.025350 7.305741
v 7.315995 0.755741 7.305741
v 8.046387 0.755741 7.305741
v 7.315995 0.025350 -8.015500
v 8.046387 0.025350 -8.015500
v 7.315995 0.755741 -8.015500
v 8.046387 0.755741 -8.015500
v 8.046387 0.025350 -7.229352
v 7.315995 0.025350 -7.229352
v 8.046387 0.755741 -7.229352
v 7.315995 0.755741 -7.229352
v -8.026189 0.025350 -8.015500
v -8.026189 0.755741 -8.015500
v -8.026189 0.025350 -7.229352
v -8.026189 0.755741 -7.229352
v -7.249538 0.025350 -7.229352
v -7.249538 0.755741 -7.229352
v -7.249538 0.755741 -8.015500
v -7.249538 0.025350 -8.015500
v -8.026189 0.025350 7.390345
v -8.026189 0.755741 7.390345
v -7.249538 0.025350 7.390345
v -7.249538 0.755741 7.390345
v -8.050148 -0.060276 -8.035604
v -8.050148 -0.060276 8.035605
v 8.050149 -0.060276 8.035604
v 8.050145 -0.060276 -8.035608
v -8.050152 0.060276 -8.035601
v -8.050142 0.060276 8.035610
v 8.050151 0.060276 8.035603
v 8.050147 0.060276 -8.035605
v -7.249538 0.025350 -4.098007
v -7.249538 0.755741 -4.098007
v -8.026189 0.025350 -4.098007
v -8.026189 0.755741 -4.098007
v -7.249538 0.755741 1.646169
v -8.026189 0.755741 1.646169
v -7.249538 0.025350 1.646169
v -8.026189 0.025350 1.646169
v -7.249538 0.025350 -3.207669
v -8.026189 0.025350 -3.207669
v -7.249538 0.755741 -3.207669
v -8.026189 0.755741 -3.207669
v -0.776910 0.025350 -4.098007
v -0.776910 0.755741 -4.098007
v -0.776910 0.025350 -3.207669
v -0.776910 0.755741 -3.207669
vt 0.000000 0.000000
vt 1.000000 0.000000
vt 1.000000 1.000000
vn 0.000000 0.000000 1.000000
vn 1.000000 0.000000 0.000000
vn 0.000000 -1.000000 0.000000
vn 0.000000 1.000000 0.000000
vn -1.000000 0.000000 0.000000
vn 0.000000 0.000000 -1.000000
usemtl Material
s off
f 1/1/1 9/2/1 10/3/1
f 2/1/1 17/2/1 18/3/1
f 8/1/2 4/2/2 3/3/2
f 5/1/1 1/2/1 4/3/1
f 2/1/3 3/2/3 4/3/3
f 7/1/4 6/2/4 5/3/4
f 9/1/3 13/2/3 14/3/3
f 2/1/1 10/2/1 12/3/1
f 6/1/1 12/2/1 11/3/1
f 5/1/1 11/2/1 9/3/1
f 16/1/5 14/2/5 13/3/5
f 10/1/6 14/2/6 16/3/6
f 12/1/4 16/2/4 15/3/4
f 11/1/1 15/2/1 13/3/1
f 26/1/3 21/2/3 22/3/3
f 3/1/1 18/2/1 20/3/1
f 7/1/1 20/2/1 19/3/1
f 6/1/1 19/2/1 17/3/1
f 24/1/6 22/2/6 21/3/6
f 25/1/2 22/2/2 24/3/2
f 27/1/4 24/2/4 23/3/4
f 53/1/2 40/2/2 39/3/2
f 17/1/3 26/2/3 25/3/3
f 18/1/2 25/2/2 27/3/2
f 20/1/4 27/2/4 28/3/4
f 19/1/5 28/2/5 26/3/5
f 32/1/5 30/2/5 29/3/5
f 35/1/4 30/2/4 32/3/4
f 33/1/3 31/2/3 29/3/3
f 36/1/6 29/2/6 30/3/6
f 28/1/1 34/2/1 33/3/1
f 23/1/4 35/2/4 34/3/4
f 26/1/3 33/2/3 36/3/3
f 21/1/6 36/2/6 35/3/6
f 40/1/1 38/2/1 37/3/1
f 55/1/3 39/2/3 37/3/3
f 54/1/4 38/2/4 40/3/4
f 56/1/5 37/2/5 38/3/5
f 42/1/4 43/2/4 44/3/4
f 48/1/3 47/2/3 46/3/3
f 41/1/2 45/2/2 46/3/2
f 42/1/6 46/2/6 47/3/6
f 47/1/5 48/2/5 44/3/5
f 41/1/1 44/2/1 48/3/1
f 33/1/2 34/2/2 50/3/2
f 33/1/3 49/2/3 51/3/3
f 32/1/4 52/2/4 50/3/4
f 32/1/5 31/2/5 51/3/5
f 59/1/2 53/2/2 55/3/2
f 57/1/3 55/2/3 56/3/3
f 60/1/4 54/2/4 53/3/4
f 58/1/5 56/2/5 54/3/5
f 57/1/1 63/2/1 64/3/1
f 49/1/3 57/2/3 58/3/3
f 52/1/4 60/2/4 59/3/4
f 51/1/5 58/2/5 60/3/5
f 62/1/2 64/2/2 63/3/2
f 59/1/4 64/2/4 62/3/4
f 50/1/6 62/2/6 61/3/6
f 49/1/3 61/2/3 63/3/3
f 2/1/1 1/2/1 10/3/1
f 3/1/1 2/2/1 18/3/1
f 7/1/2 8/2/2 3/3/2
f 8/1/1 5/2/1 4/3/1
f 1/1/3 2/2/3 4/3/3
f 8/1/4 7/2/4 5/3/4
f 10/1/3 9/2/3 14/3/3
f 6/1/1 2/2/1 12/3/1
f 5/1/1 6/2/1 11/3/1
f 1/1/1 5/2/1 9/3/1
f 15/1/5 16/2/5 13/3/5
f 12/1/6 10/2/6 16/3/6
f 11/1/4 12/2/4 15/3/4
f 9/1/1 11/2/1 13/3/1
f 25/1/3 26/2/3 22/3/3
f 7/1/1 3/2/1 20/3/1
f 6/1/1 7/2/1 19/3/1
f 2/1/1 6/2/1 17/3/1
f 23/1/6 24/2/6 21/3/6
f 27/1/2 25/2/2 24/3/2
f 28/1/4 27/2/4 23/3/4
f 55/1/2 53/2/2 39/3/2
f 18/1/3 17/2/3 25/3/3
f 20/1/2 18/2/2 27/3/2
f 19/1/4 20/2/4 28/3/4
f 17/1/5 19/2/5 26/3/5
f 31/1/5 32/2/5 29/3/5
f 34/1/4 35/2/4 32/3/4
f 36/1/3 33/2/3 29/3/3
f 35/1/6 36/2/6 30/3/6
f 26/1/1 28/2/1 33/3/1
f 28/1/4 23/2/4 34/3/4
f 21/1/3 26/2/3 36/3/3
f 23/1/6 21/2/6 35/3/6
f 39/1/1 40/2/1 37/3/1
f 56/1/3 55/2/3 37/3/3
f 53/1/4 54/2/4 40/3/4
f 54/1/5 56/2/5 38/3/5
f 41/1/4 42/2/4 44/3/4
f 45/1/3 48/2/3 46/3/3
f 42/1/2 41/2/2 46/3/2
f 43/1/6 42/2/6 47/3/6
f 43/1/5 47/2/5 44/3/5
f 45/1/1 41/2/1 48/3/1
f 49/1/2 33/2/2 50/3/2
f 31/1/3 33/2/3 51/3/3
f 34/1/4 32/2/4 50/3/4
f 52/1/5 32/2/5 51/3/5
f 57/1/2 59/2/2 55/3/2
f 58/1/3 57/2/3 56/3/3
f 59/1/4 60/2/4 53/3/4
f 60/1/5 58/2/5 54/3/5
f 59/1/1 57/2/1 64/3/1
f 51/1/3 49/2/3 58/3/3
f 50/1/4 52/2/4 59/3/4
f 52/1/5 51/2/5 60/3/5
f 61/1/2 62/2/2 63/3/2
f 50/1/4 59/2/4 62/3/4
f 49/1/6 50/2/6 61/3/6
f 57/1/3 49/2/3 63/3/3
